<svg id="svg" version="1.1" xmlns="http://www.w3.org/2000/svg" xmlns:xlink="http://www.w3.org/1999/xlink" width="400" height="400" viewBox="0, 0, 400,400"><g id="svgg"><path id="path0" d="M241.209 122.449 C 213.586 128.314,207.404 165.231,231.670 179.414 C 258.660 195.190,289.279 164.800,273.971 137.428 C 267.870 126.519,253.336 119.874,241.209 122.449 M110.940 200.612 C 47.551 209.824,21.672 287.749,66.962 333.038 C 109.638 375.715,182.939 355.685,197.706 297.313 C 211.318 243.508,165.690 192.656,110.940 200.612 " stroke="none" fill="#ffff00" fill-rule="evenodd"></path><path id="path1" d="M183.301 7.494 C 57.934 19.009,-23.306 143.968,17.217 262.956 C 45.690 346.561,128.709 400.657,216.638 392.900 C 334.147 382.534,415.109 271.343,388.678 156.622 C 367.112 63.015,278.596 -1.258,183.301 7.494 M132.494 44.363 C 194.986 53.079,221.728 129.106,178.501 175.159 C 136.558 219.844,61.427 200.494,46.061 141.049 C 32.263 87.666,77.794 36.733,132.494 44.363 M289.116 44.363 C 351.608 53.079,378.350 129.106,335.123 175.159 C 293.180 219.844,218.049 200.494,202.683 141.049 C 188.884 87.666,234.416 36.733,289.116 44.363 M267.370 47.421 C 254.350 49.519,243.452 54.151,233.013 62.023 C 228.779 65.216,226.731 67.237,229.946 65.049 C 239.451 58.581,252.315 58.105,262.572 63.841 C 282.220 74.829,283.151 103.656,264.267 116.287 C 236.614 134.783,202.953 100.832,221.671 73.324 C 223.843 70.131,221.857 72.137,218.605 76.419 C 198.219 103.264,198.219 140.114,218.605 166.959 C 220.139 168.980,221.795 170.979,222.285 171.401 C 223.121 172.123,223.115 172.088,222.188 170.825 C 207.293 150.544,222.002 122.229,247.409 122.276 C 277.757 122.333,289.530 161.578,264.267 178.475 C 254.008 185.337,240.271 185.273,229.946 178.315 C 226.314 175.868,228.987 178.340,234.165 182.218 C 261.247 202.500,303.250 200.947,326.850 178.792 L 328.791 176.970 326.227 178.658 C 306.429 191.690,279.676 177.853,278.796 154.127 C 277.889 129.675,303.397 114.082,324.760 126.029 C 340.051 134.581,344.807 155.088,334.970 170.058 L 333.583 172.169 335.409 170.224 C 357.577 146.624,359.125 105.126,338.868 77.519 C 335.045 72.309,332.683 69.907,335.296 73.886 C 347.173 91.971,336.268 117.241,314.989 120.946 C 288.163 125.618,268.802 95.996,283.869 73.333 C 292.981 59.627,312.343 55.659,326.081 64.682 C 329.385 66.853,328.305 65.601,323.992 62.262 C 308.379 50.176,286.256 44.377,267.370 47.421 M225.336 68.522 C 224.403 69.472,223.727 70.250,223.832 70.250 C 223.938 70.250,224.787 69.472,225.720 68.522 C 226.652 67.572,227.329 66.795,227.223 66.795 C 227.118 66.795,226.268 67.572,225.336 68.522 M331.270 68.810 C 332.211 69.813,333.032 70.633,333.093 70.633 C 333.382 70.633,333.077 70.289,331.382 68.698 L 329.559 66.987 331.270 68.810 M225.144 174.664 C 226.184 175.720,227.121 176.583,227.226 176.583 C 227.332 176.583,226.568 175.720,225.528 174.664 C 224.488 173.608,223.551 172.745,223.445 172.745 C 223.340 172.745,224.104 173.608,225.144 174.664 M331.080 174.760 L 329.175 176.775 331.190 174.870 C 333.063 173.100,333.381 172.745,333.095 172.745 C 333.034 172.745,332.127 173.652,331.080 174.760 M132.878 200.601 C 167.248 205.394,196.059 234.412,199.457 267.658 C 199.786 270.870,200.198 270.977,200.517 267.932 C 205.250 222.649,252.368 190.691,297.287 202.299 C 366.649 220.224,377.080 315.076,313.261 347.565 C 265.803 371.725,205.854 340.155,200.544 288.205 C 200.224 285.074,199.808 285.140,199.454 288.379 C 196.502 315.425,175.992 341.202,149.613 351.020 C 98.395 370.082,44.146 332.454,44.146 277.867 C 44.146 230.522,86.014 194.064,132.878 200.601 " stroke="none" fill="#040404" fill-rule="evenodd"></path><path id="path2" d="M110.557 44.374 C 47.167 53.586,21.288 131.511,66.578 176.800 C 111.989 222.211,189.578 196.381,199.003 132.714 C 206.543 81.786,161.652 36.950,110.557 44.374 M241.209 60.261 C 213.586 66.126,207.404 103.043,231.670 117.226 C 258.660 133.002,289.279 102.612,273.971 75.240 C 267.870 64.331,253.336 57.686,241.209 60.261 " stroke="none" fill="#3c44cb" fill-rule="evenodd"></path><path id="path3" d="M0.000 200.000 L 0.000 400.000 200.000 400.000 L 400.000 400.000 400.000 200.000 L 400.000 0.000 200.000 0.000 L 0.000 0.000 0.000 200.000 M216.507 7.474 C 341.437 18.517,422.838 141.893,383.802 261.036 C 356.113 345.545,272.352 400.793,183.877 392.906 C 54.309 381.354,-27.132 249.864,20.392 128.952 C 51.397 50.070,132.196 0.021,216.507 7.474 M267.179 44.374 C 203.789 53.586,177.910 131.511,223.200 176.800 C 268.611 222.211,346.200 196.381,355.625 132.714 C 363.165 81.786,318.274 36.950,267.179 44.374 M293.151 48.131 C 304.812 50.621,314.960 55.270,323.992 62.262 C 328.305 65.601,329.385 66.853,326.081 64.682 C 312.343 55.659,292.981 59.627,283.869 73.333 C 268.802 95.996,288.163 125.618,314.989 120.946 C 336.268 117.241,347.173 91.971,335.296 73.886 C 332.683 69.907,335.045 72.309,338.868 77.519 C 369.932 119.853,348.335 180.766,297.499 194.197 C 235.397 210.604,182.420 145.305,211.302 87.952 C 226.307 58.156,261.014 41.271,293.151 48.131 M333.205 70.521 C 333.205 70.810,332.861 70.505,331.270 68.810 L 329.559 66.987 331.382 68.698 C 332.385 69.639,333.205 70.460,333.205 70.521 " stroke="none" fill="#fcfcfb" fill-rule="evenodd"></path><path id="path4" d="M303.397 122.449 C 275.775 128.314,269.593 165.231,293.858 179.414 C 320.849 195.190,351.467 164.800,336.159 137.428 C 330.058 126.519,315.524 119.874,303.397 122.449 M266.795 200.612 C 203.409 209.823,177.529 287.751,222.816 333.038 C 268.227 378.449,345.816 352.619,355.241 288.952 C 362.781 238.024,317.890 193.188,266.795 200.612 " stroke="none" fill="#b47454" fill-rule="evenodd"></path></g></svg>